<svg xmlns="http://www.w3.org/2000/svg" width="970" height="484" viewBox="0 0 970 484" version="1.1"><path d="M 901 1.048 C 854.245 4.427, 803.680 18.015, 761.500 38.536 C 691.544 72.570, 637.451 122.855, 596.661 191.772 L 589.989 203.043 590.245 290.658 L 590.500 378.273 608.500 342.658 C 618.400 323.070, 626.725 307.035, 627 307.026 C 627.275 307.016, 631.039 314.035, 635.364 322.624 C 660.968 373.466, 671.523 393.313, 675.154 397.438 C 677.750 400.387, 681.782 403.265, 686.767 405.728 C 694.082 409.341, 694.826 409.499, 704.452 409.479 C 713.680 409.460, 715.033 409.200, 721.031 406.283 C 729.437 402.195, 736.104 395.566, 740.223 387.199 C 743.281 380.987, 743.500 379.856, 743.500 370.270 L 743.500 359.999 726.992 327.249 C 717.913 309.237, 701.944 277.774, 691.506 257.332 L 672.528 220.164 678.406 211.510 C 698.830 181.444, 728.494 152.080, 759.500 131.239 C 782.633 115.690, 811.396 101.930, 838.059 93.656 C 864.546 85.437, 888.304 81.463, 919.500 80.035 C 934.216 79.361, 938.555 78.811, 943.282 77.021 C 969.661 67.035, 977.613 33.536, 958.464 13.065 C 946.865 0.665, 936.448 -1.513, 901 1.048" stroke="none" fill="#049c64" fill-rule="evenodd"/><path d="M 411.045 75.032 C 396.755 78.027, 388.914 85.919, 377.209 109.089 C 307.390 247.296, 305.906 250.129, 293.449 269 C 262.885 315.300, 219.768 352.528, 169.545 375.979 C 131.734 393.635, 93.545 402.623, 47 404.822 C 30.259 405.614, 29.214 405.786, 22.911 408.799 C 7.220 416.299, -2.446 434.913, 0.926 451.137 C 3.655 464.268, 11.760 474.623, 23.759 480.307 C 30.500 483.500, 30.501 483.500, 46.500 483.412 C 63.061 483.321, 67.279 483.022, 87.500 480.507 C 108.570 477.888, 126.960 474.074, 147.500 468.065 C 183.864 457.426, 206.390 447.642, 239.039 428.304 C 293.682 395.939, 344.212 343.803, 374.709 288.321 C 376.620 284.845, 378.576 282, 379.056 282 C 379.537 282, 380.057 304.102, 380.214 331.250 L 380.500 380.500 383.582 387.003 C 395.596 412.355, 429.410 417.706, 448.067 397.208 C 452.352 392.501, 457.369 383.435, 476.686 345.500 C 489.569 320.200, 501.998 295.585, 504.305 290.800 C 506.612 286.014, 508.837 282.077, 509.250 282.050 C 509.663 282.022, 510 302.189, 510 326.864 C 510 352.691, 510.427 374.013, 511.005 377.114 C 515.013 398.588, 535.434 413.062, 556.260 409.189 C 570.183 406.600, 579.271 399.625, 586.400 386.059 L 590.047 379.118 589.774 242.309 L 589.500 105.500 587.257 100 C 582.421 88.140, 573.311 79.721, 561.302 76.012 C 546.778 71.526, 532.834 75.052, 521.982 85.956 C 517.164 90.796, 514.539 95.308, 501.296 121.500 C 470.697 182.021, 461.120 200.460, 460.108 200.797 C 459.407 201.031, 458.981 185.548, 458.787 152.821 L 458.500 104.500 456.100 98.500 C 452.818 90.293, 442.573 80.107, 434.604 77.125 C 427.990 74.650, 417.369 73.707, 411.045 75.032" stroke="none" fill="#fcfcfc" fill-rule="evenodd"/></svg>